
        <svg xmlns="http://www.w3.org/2000/svg" xmlns:xlink="http://www.w3.org/1999/xlink" version="1.1" width="3313.7137799644506" 
        height="878.3985839004613" viewBox="0 0 3313.7137799644506 878.3985839004613">
			<rect fill="#ffffff" width="3313.7137799644506" height="878.3985839004613"/>
			<g transform="scale(15.685688998222522) translate(10, 10)">
				<defs id="SvgjsDefs4510"></defs><g id="SvgjsG4511" featureKey="nameLeftFeature-0" transform="matrix(2.5714285714285716,0,0,2.5714285714285716,-3.0857137952532088,-15.42857142857143)" fill="#06b6d4"><path d="M4.12 17.32 l5.92 0 l0 2.68 l-6.32 0 l-2.52 0 l0 -14 l2.92 0 l5.74 0 l0 2.68 l-5.74 0 l0 2.96 l4.34 0 l0 2.64 l-4.34 0 l0 3.04 z M24.14 20 l-3.44 0 l-3.02 -4.5 l-3 4.5 l-3.44 0 l4.7 -7.08 l-4.64 -6.92 l3.44 0 l2.92 4.34 l2.88 -4.34 l3.44 0 l-4.6 6.92 z"></path></g><g id="SvgjsG4512" featureKey="inlineSymbolFeature-0" transform="matrix(0.5805155064190095,0,0,0.5805155064190095,62.78091859912781,-8.185268308334397)" fill="#40a8c4"><path xmlns="http://www.w3.org/2000/svg" d="M87.1,18.3c-0.3-0.2-7.3-4.2-17.1-4.2c-9.1,0-17.5,3.4-24.9,10.2c-7.4-6.8-15.8-10.2-24.9-10.2c-9.8,0-16.9,4-17.2,4.2  c-0.6,0.3-0.9,0.9-0.9,1.6v44.8c0,0.7,0.4,1.3,0.9,1.6c0.6,0.3,1.3,0.3,1.9,0c0,0,0.4-0.2,0.9-0.5v8.4c0,0.7,0.3,1.3,0.9,1.6  c0.3,0.2,0.6,0.3,1,0.3l0.9-0.2c0.2-0.1,20.2-10.2,35.4-1.8l0.9,0.2h0.4l0.9-0.2c15.2-8.4,35.1,1.7,35.3,1.8  c0.6,0.3,1.3,0.3,1.8-0.1c0.6-0.3,0.9-0.9,0.9-1.6v-8.4c0.5,0.3,0.9,0.5,0.9,0.5c0.6,0.3,1.3,0.4,1.9,0c0.6-0.3,0.9-1,0.9-1.6V19.9  C88,19.3,87.7,18.7,87.1,18.3z M5.9,21.1c2.1-1,7.5-3.2,14.3-3.2c8.5,0,16.3,3.4,23,9.8v40.2C36.2,62,28.4,59,20,59  c-6.1,0-11.2,1.6-14.1,2.9V21.1z M9.6,71.4v-7c2.6-0.9,6.2-1.7,10.4-1.7c5.9,0,11.5,1.7,16.6,5C25.5,65.6,14.6,69.3,9.6,71.4z   M80.6,71.4c-5-2.1-15.9-5.8-26.9-3.7c5.2-3.3,10.7-5,16.6-5c4.1,0,7.7,0.8,10.3,1.7V71.4z M84.3,61.8c-2.9-1.2-7.9-2.8-14-2.8  C61.8,59,54,62,47,68V27.7c6.8-6.6,14.6-9.9,23.1-9.9c6.8,0,12.2,2.2,14.3,3.2V61.8z"></path></g><g id="SvgjsG4513" featureKey="nameRightFeature-0" transform="matrix(2.5714285714285716,0,0,2.5714285714285716,115.9142837524414,-15.42857142857143)" fill="#06b6d4"><path d="M16.2 6 l0 14 l-3 0 l0 -7.44 l-3.26 7.44 l-2.52 0 l-3.22 -7.4 l0 7.4 l-3 0 l0 -14 l2.88 0 l4.62 10.1 l4.62 -10.1 l2.88 0 z M29.220000000000002 6 l-6.48 11.5 l6.56 0 l0 2.5 l-11.2 0 l6.48 -11.5 l-6.12 0 l0 -2.5 l10.76 0 z"></path></g>
			</g>
		</svg>
	